G04 EAGLE Gerber RS-274X export*
G75*
%MOMM*%
%FSLAX34Y34*%
%LPD*%
%INSilkscreen Bottom*%
%IPPOS*%
%AMOC8*
5,1,8,0,0,1.08239X$1,22.5*%
G01*
%ADD10C,0.203200*%
%ADD11C,0.127000*%
%ADD12C,0.177800*%


D10*
X189500Y57350D02*
X189500Y82350D01*
X394700Y82350D02*
X394700Y57350D01*
X194700Y57350D02*
X189500Y57350D01*
X388230Y57350D02*
X394700Y57350D01*
X394700Y82350D02*
X389500Y82350D01*
X195970Y82350D02*
X189500Y82350D01*
X337230Y57350D02*
X348570Y57350D01*
X220710Y82350D02*
X211090Y82350D01*
X236490Y82350D02*
X246110Y82350D01*
X261890Y82350D02*
X271510Y82350D01*
X287290Y82350D02*
X296910Y82350D01*
X312690Y82350D02*
X322310Y82350D01*
X338090Y82350D02*
X347710Y82350D01*
X363490Y82350D02*
X373110Y82350D01*
X373970Y57350D02*
X362630Y57350D01*
X323170Y57350D02*
X311830Y57350D01*
X297770Y57350D02*
X286430Y57350D01*
X272370Y57350D02*
X261030Y57350D01*
X246970Y57350D02*
X235630Y57350D01*
X221570Y57350D02*
X210230Y57350D01*
X210130Y57450D02*
X221470Y57450D01*
D11*
X546100Y57350D02*
X800100Y57350D01*
X800100Y82350D02*
X546100Y82350D01*
D12*
X546100Y57350D01*
X552450Y57350D01*
X552450Y82350D02*
X546100Y82350D01*
X566420Y82350D02*
X576580Y82350D01*
X591820Y82350D02*
X601980Y82350D01*
X617220Y82350D02*
X627380Y82350D01*
X642620Y82350D02*
X652780Y82350D01*
X668020Y82350D02*
X678180Y82350D01*
X576580Y57350D02*
X566420Y57350D01*
X591820Y57350D02*
X601980Y57350D01*
X617220Y57350D02*
X627380Y57350D01*
X642620Y57350D02*
X652780Y57350D01*
X668020Y57350D02*
X678180Y57350D01*
X800100Y57350D02*
X800100Y82350D01*
X728980Y82350D02*
X718820Y82350D01*
X718820Y57350D02*
X728980Y57350D01*
X793750Y57350D02*
X800100Y57350D01*
X800100Y82350D02*
X793750Y82350D01*
X703580Y82350D02*
X693420Y82350D01*
X693420Y57350D02*
X703580Y57350D01*
X744220Y82350D02*
X754380Y82350D01*
X769620Y82350D02*
X779780Y82350D01*
X754380Y57350D02*
X744220Y57350D01*
X769620Y57350D02*
X779780Y57350D01*
D11*
X531495Y104846D02*
X531495Y108331D01*
X531495Y104846D02*
X531493Y104775D01*
X531487Y104703D01*
X531478Y104633D01*
X531465Y104563D01*
X531448Y104493D01*
X531427Y104425D01*
X531403Y104358D01*
X531375Y104292D01*
X531344Y104228D01*
X531309Y104165D01*
X531271Y104105D01*
X531230Y104046D01*
X531186Y103990D01*
X531139Y103936D01*
X531090Y103885D01*
X531037Y103837D01*
X530982Y103791D01*
X530925Y103749D01*
X530865Y103709D01*
X530804Y103673D01*
X530740Y103640D01*
X530675Y103611D01*
X530609Y103585D01*
X530541Y103562D01*
X530472Y103543D01*
X530402Y103528D01*
X530332Y103517D01*
X530261Y103509D01*
X530190Y103505D01*
X530118Y103505D01*
X530047Y103509D01*
X529976Y103517D01*
X529906Y103528D01*
X529836Y103543D01*
X529767Y103562D01*
X529699Y103585D01*
X529633Y103611D01*
X529568Y103640D01*
X529504Y103673D01*
X529443Y103709D01*
X529383Y103749D01*
X529326Y103791D01*
X529271Y103837D01*
X529218Y103885D01*
X529169Y103936D01*
X529122Y103990D01*
X529078Y104046D01*
X529037Y104105D01*
X528999Y104165D01*
X528964Y104228D01*
X528933Y104292D01*
X528905Y104358D01*
X528881Y104425D01*
X528860Y104493D01*
X528843Y104563D01*
X528830Y104633D01*
X528821Y104703D01*
X528815Y104775D01*
X528813Y104846D01*
X528814Y104846D02*
X528814Y108331D01*
X524851Y108331D02*
X524851Y103505D01*
X524851Y105918D02*
X525521Y106320D01*
X525568Y106350D01*
X525612Y106384D01*
X525654Y106420D01*
X525693Y106459D01*
X525730Y106500D01*
X525763Y106545D01*
X525793Y106591D01*
X525821Y106639D01*
X525844Y106689D01*
X525864Y106741D01*
X525881Y106794D01*
X525894Y106847D01*
X525903Y106902D01*
X525908Y106957D01*
X525910Y107013D01*
X525908Y107068D01*
X525902Y107123D01*
X525892Y107177D01*
X525878Y107231D01*
X525861Y107284D01*
X525840Y107335D01*
X525815Y107385D01*
X525788Y107433D01*
X525757Y107478D01*
X525722Y107522D01*
X525685Y107563D01*
X525646Y107602D01*
X525603Y107637D01*
X525558Y107670D01*
X525512Y107700D01*
X525463Y107726D01*
X525412Y107748D01*
X525360Y107768D01*
X525307Y107783D01*
X525253Y107795D01*
X525253Y107794D02*
X525164Y107809D01*
X525074Y107819D01*
X524984Y107826D01*
X524894Y107829D01*
X524804Y107828D01*
X524714Y107823D01*
X524625Y107815D01*
X524535Y107802D01*
X524447Y107786D01*
X524359Y107766D01*
X524272Y107743D01*
X524186Y107716D01*
X524102Y107685D01*
X524018Y107650D01*
X523937Y107612D01*
X523856Y107571D01*
X523778Y107526D01*
X524851Y105918D02*
X524181Y105516D01*
X524134Y105486D01*
X524090Y105452D01*
X524048Y105416D01*
X524009Y105377D01*
X523972Y105336D01*
X523939Y105291D01*
X523909Y105245D01*
X523881Y105197D01*
X523858Y105147D01*
X523838Y105095D01*
X523821Y105042D01*
X523808Y104989D01*
X523799Y104934D01*
X523794Y104879D01*
X523792Y104823D01*
X523794Y104768D01*
X523800Y104713D01*
X523810Y104659D01*
X523824Y104605D01*
X523841Y104552D01*
X523862Y104501D01*
X523887Y104451D01*
X523914Y104403D01*
X523945Y104357D01*
X523980Y104314D01*
X524017Y104273D01*
X524056Y104234D01*
X524099Y104199D01*
X524144Y104166D01*
X524191Y104136D01*
X524239Y104110D01*
X524290Y104088D01*
X524342Y104068D01*
X524395Y104053D01*
X524449Y104041D01*
X524449Y104042D02*
X524538Y104027D01*
X524628Y104017D01*
X524718Y104010D01*
X524808Y104007D01*
X524898Y104008D01*
X524988Y104013D01*
X525077Y104021D01*
X525167Y104034D01*
X525255Y104050D01*
X525343Y104070D01*
X525430Y104093D01*
X525516Y104120D01*
X525601Y104151D01*
X525684Y104186D01*
X525766Y104224D01*
X525846Y104265D01*
X525924Y104310D01*
X521071Y107259D02*
X519730Y108331D01*
X519730Y103505D01*
X518390Y103505D02*
X521071Y103505D01*
X224155Y102306D02*
X224155Y105791D01*
X224155Y102306D02*
X224153Y102235D01*
X224147Y102163D01*
X224138Y102093D01*
X224125Y102023D01*
X224108Y101953D01*
X224087Y101885D01*
X224063Y101818D01*
X224035Y101752D01*
X224004Y101688D01*
X223969Y101625D01*
X223931Y101565D01*
X223890Y101506D01*
X223846Y101450D01*
X223799Y101396D01*
X223750Y101345D01*
X223697Y101297D01*
X223642Y101251D01*
X223585Y101209D01*
X223525Y101169D01*
X223464Y101133D01*
X223400Y101100D01*
X223335Y101071D01*
X223269Y101045D01*
X223201Y101022D01*
X223132Y101003D01*
X223062Y100988D01*
X222992Y100977D01*
X222921Y100969D01*
X222850Y100965D01*
X222778Y100965D01*
X222707Y100969D01*
X222636Y100977D01*
X222566Y100988D01*
X222496Y101003D01*
X222427Y101022D01*
X222359Y101045D01*
X222293Y101071D01*
X222228Y101100D01*
X222164Y101133D01*
X222103Y101169D01*
X222043Y101209D01*
X221986Y101251D01*
X221931Y101297D01*
X221878Y101345D01*
X221829Y101396D01*
X221782Y101450D01*
X221738Y101506D01*
X221697Y101565D01*
X221659Y101625D01*
X221624Y101688D01*
X221593Y101752D01*
X221565Y101818D01*
X221541Y101885D01*
X221520Y101953D01*
X221503Y102023D01*
X221490Y102093D01*
X221481Y102163D01*
X221475Y102235D01*
X221473Y102306D01*
X221474Y102306D02*
X221474Y105791D01*
X217511Y105791D02*
X217511Y100965D01*
X217511Y103378D02*
X218181Y103780D01*
X218228Y103810D01*
X218272Y103844D01*
X218314Y103880D01*
X218353Y103919D01*
X218390Y103960D01*
X218423Y104005D01*
X218453Y104051D01*
X218481Y104099D01*
X218504Y104149D01*
X218524Y104201D01*
X218541Y104254D01*
X218554Y104307D01*
X218563Y104362D01*
X218568Y104417D01*
X218570Y104473D01*
X218568Y104528D01*
X218562Y104583D01*
X218552Y104637D01*
X218538Y104691D01*
X218521Y104744D01*
X218500Y104795D01*
X218475Y104845D01*
X218448Y104893D01*
X218417Y104938D01*
X218382Y104982D01*
X218345Y105023D01*
X218306Y105062D01*
X218263Y105097D01*
X218218Y105130D01*
X218172Y105160D01*
X218123Y105186D01*
X218072Y105208D01*
X218020Y105228D01*
X217967Y105243D01*
X217913Y105255D01*
X217913Y105254D02*
X217824Y105269D01*
X217734Y105279D01*
X217644Y105286D01*
X217554Y105289D01*
X217464Y105288D01*
X217374Y105283D01*
X217285Y105275D01*
X217195Y105262D01*
X217107Y105246D01*
X217019Y105226D01*
X216932Y105203D01*
X216846Y105176D01*
X216762Y105145D01*
X216678Y105110D01*
X216597Y105072D01*
X216516Y105031D01*
X216438Y104986D01*
X217511Y103378D02*
X216841Y102976D01*
X216794Y102946D01*
X216750Y102912D01*
X216708Y102876D01*
X216669Y102837D01*
X216632Y102796D01*
X216599Y102751D01*
X216569Y102705D01*
X216541Y102657D01*
X216518Y102607D01*
X216498Y102555D01*
X216481Y102502D01*
X216468Y102449D01*
X216459Y102394D01*
X216454Y102339D01*
X216452Y102283D01*
X216454Y102228D01*
X216460Y102173D01*
X216470Y102119D01*
X216484Y102065D01*
X216501Y102012D01*
X216522Y101961D01*
X216547Y101911D01*
X216574Y101863D01*
X216605Y101817D01*
X216640Y101774D01*
X216677Y101733D01*
X216716Y101694D01*
X216759Y101659D01*
X216804Y101626D01*
X216851Y101596D01*
X216899Y101570D01*
X216950Y101548D01*
X217002Y101528D01*
X217055Y101513D01*
X217109Y101501D01*
X217109Y101502D02*
X217198Y101487D01*
X217288Y101477D01*
X217378Y101470D01*
X217468Y101467D01*
X217558Y101468D01*
X217648Y101473D01*
X217737Y101481D01*
X217827Y101494D01*
X217915Y101510D01*
X218003Y101530D01*
X218090Y101553D01*
X218176Y101580D01*
X218261Y101611D01*
X218344Y101646D01*
X218426Y101684D01*
X218506Y101725D01*
X218584Y101770D01*
X213731Y104719D02*
X212390Y105791D01*
X212390Y100965D01*
X211050Y100965D02*
X213731Y100965D01*
M02*
