G04 EAGLE Gerber RS-274X export*
G75*
%MOMM*%
%FSLAX34Y34*%
%LPD*%
%INSoldermask Bottom*%
%IPPOS*%
%AMOC8*
5,1,8,0,0,1.08239X$1,22.5*%
G01*
%ADD10C,1.203200*%
%ADD11C,2.082800*%
%ADD12R,1.903200X1.903200*%
%ADD13C,1.903200*%
%ADD14C,2.082800*%
%ADD15P,2.556822X8X22.500000*%
%ADD16R,1.203200X6.203200*%
%ADD17R,1.223200X6.203200*%
%ADD18C,1.259600*%
%ADD19C,1.109600*%
%ADD20C,0.959600*%


D10*
X114300Y146050D03*
X114300Y133350D03*
X114300Y171450D03*
X114300Y158750D03*
X114300Y19050D03*
X114300Y6350D03*
X114300Y31750D03*
X114300Y44450D03*
X114300Y57150D03*
X114300Y69850D03*
X114300Y120650D03*
X114300Y107950D03*
D11*
X787400Y165100D03*
X787400Y139700D03*
X787400Y114300D03*
D12*
X488950Y12700D03*
D13*
X514350Y12700D03*
X539750Y12700D03*
X565150Y12700D03*
X590550Y12700D03*
X615950Y12700D03*
X641350Y12700D03*
X641350Y165100D03*
X615950Y165100D03*
X590550Y165100D03*
X565150Y165100D03*
X539750Y165100D03*
X514350Y165100D03*
X488950Y165100D03*
D14*
X98298Y165100D02*
X79502Y165100D01*
X79502Y139700D02*
X98298Y139700D01*
X98298Y114300D02*
X79502Y114300D01*
X79502Y88900D02*
X98298Y88900D01*
X98298Y63500D02*
X79502Y63500D01*
X79502Y38100D02*
X98298Y38100D01*
X98298Y12700D02*
X79502Y12700D01*
X130302Y165100D02*
X149098Y165100D01*
X149098Y139700D02*
X130302Y139700D01*
X130302Y114300D02*
X149098Y114300D01*
X149098Y88900D02*
X130302Y88900D01*
X130302Y63500D02*
X149098Y63500D01*
X149098Y38100D02*
X130302Y38100D01*
X130302Y12700D02*
X149098Y12700D01*
D15*
X501650Y107950D03*
D16*
X203200Y69840D03*
X254000Y69840D03*
X279400Y69860D03*
X304800Y69840D03*
X330200Y69860D03*
X355600Y69840D03*
X381000Y69860D03*
X228600Y69840D03*
D17*
X558800Y69850D03*
X584200Y69850D03*
X609600Y69850D03*
X635000Y69850D03*
X660400Y69850D03*
X685800Y69850D03*
X711200Y69850D03*
X736600Y69850D03*
X762000Y69850D03*
X787400Y69850D03*
D18*
X346710Y107034D03*
D19*
X17780Y154940D03*
X17780Y137160D03*
X17780Y118110D03*
X17780Y97790D03*
X17780Y81280D03*
X17780Y60960D03*
X17780Y40640D03*
X17780Y22860D03*
X17780Y7620D03*
X17780Y170180D03*
D18*
X298450Y120650D03*
X298450Y152400D03*
X292100Y50800D03*
X368300Y63500D03*
X311150Y152400D03*
X241300Y63500D03*
X215900Y63500D03*
X266700Y63500D03*
X812800Y25400D03*
X361950Y152400D03*
X457200Y158750D03*
X368300Y127000D03*
X488950Y133350D03*
X476250Y76200D03*
X647700Y139700D03*
X742950Y152400D03*
X673100Y127000D03*
X819150Y76200D03*
X844550Y50800D03*
X666750Y152400D03*
D19*
X749300Y127000D03*
X698500Y95250D03*
X723900Y95250D03*
X723900Y120650D03*
X698500Y120650D03*
X723900Y19050D03*
D18*
X768350Y110490D03*
X546100Y31750D03*
X774700Y19050D03*
D19*
X635000Y107950D03*
X749300Y63500D03*
X711200Y31750D03*
D20*
X342900Y44450D03*
M02*
