G04 EAGLE Gerber RS-274X export*
G75*
%MOMM*%
%FSLAX34Y34*%
%LPD*%
%INSolderpaste Top*%
%IPPOS*%
%AMOC8*
5,1,8,0,0,1.08239X$1,22.5*%
G01*
%ADD10R,1.300000X1.500000*%
%ADD11R,1.500000X1.300000*%
%ADD12R,1.800000X1.600000*%
%ADD13R,1.200000X1.400000*%
%ADD14R,2.000000X1.200000*%
%ADD15R,1.350000X0.600000*%
%ADD16R,1.450609X1.450609*%
%ADD17R,1.550000X0.600000*%
%ADD18R,2.000000X1.100000*%


D10*
X758800Y19050D03*
X739800Y19050D03*
D11*
X311150Y85700D03*
X311150Y66700D03*
D12*
X336550Y88930D03*
X336550Y60930D03*
D13*
X846850Y95250D03*
X816850Y95250D03*
D14*
X849550Y22800D03*
X849550Y78800D03*
D15*
X812800Y35800D03*
X812800Y45800D03*
X812800Y55800D03*
X812800Y65800D03*
D10*
X777900Y88900D03*
X796900Y88900D03*
D11*
X768350Y66650D03*
X768350Y47650D03*
X793750Y15900D03*
X793750Y34900D03*
X762000Y161900D03*
X762000Y142900D03*
X285750Y66700D03*
X285750Y85700D03*
D16*
X304803Y133353D03*
D17*
X331800Y114300D03*
X331800Y127000D03*
X331800Y139700D03*
X331800Y152400D03*
X277800Y152400D03*
X277800Y139700D03*
X277800Y127000D03*
X277800Y114300D03*
D18*
X18100Y163050D03*
X18100Y146050D03*
X18100Y129050D03*
X58100Y129050D03*
X58100Y146050D03*
X58100Y163050D03*
X18100Y105900D03*
X18100Y88900D03*
X18100Y71900D03*
X58100Y71900D03*
X58100Y88900D03*
X58100Y105900D03*
X18100Y48750D03*
X18100Y31750D03*
X18100Y14750D03*
X58100Y14750D03*
X58100Y31750D03*
X58100Y48750D03*
M02*
