0
SECTION
2
HEADER
9
$INSUNITS
70
4
9
$ACADVER
1
AC1014
9
$HANDSEED
5
FFFF
0
ENDSEC
0
SECTION
2
TABLES
0
TABLE
2
VPORT
5
8
100
AcDbSymbolTable
0
ENDTAB
0
TABLE
2
LTYPE
5
5
100
AcDbSymbolTable
0
LTYPE
5
14
100
AcDbSymbolTableRecord
100
AcDbLinetypeTableRecord
2
BYBLOCK
70
0
0
LTYPE
5
15
100
AcDbSymbolTableRecord
100
AcDbLinetypeTableRecord
2
BYLAYER
70
0
0
LTYPE
5
16
100
AcDbSymbolTableRecord
100
AcDbLinetypeTableRecord
2
DASHED
70
0
3
Dashed __ __ __ __ __ __ __ __ __ __ __ __ __ _
72
65
73
2
40
0.75
49
0.5
74
0
49
-0.25
74
0
0
ENDTAB
0
TABLE
2
LAYER
5
2
100
AcDbSymbolTable
70
3
0
LAYER
5
50
100
AcDbSymbolTableRecord
100
AcDbLayerTableRecord
2
1
70
0
62
7
6
DASHED
0
LAYER
5
51
100
AcDbSymbolTableRecord
100
AcDbLayerTableRecord
2
0
70
0
62
7
6
CONTINUOUS
0
ENDTAB
0
TABLE
2
STYLE
5
3
100
AcDbSymbolTable
70
1
0
STYLE
5
11
100
AcDbSymbolTableRecord
100
AcDbTextStyleTableRecord
2
STANDARD
70
0
0
ENDTAB
0
TABLE
2
VIEW
5
6
100
AcDbSymbolTable
70
0
0
ENDTAB
0
TABLE
2
UCS
5
7
100
AcDbSymbolTable
70
0
0
ENDTAB
0
TABLE
2
APPID
5
9
100
AcDbSymbolTable
70
2
0
APPID
5
12
100
AcDbSymbolTableRecord
100
AcDbRegAppTableRecord
2
ACAD
70
0
0
ENDTAB
0
TABLE
2
DIMSTYLE
5
A
100
AcDbSymbolTable
70
1
0
ENDTAB
0
TABLE
2
BLOCK_RECORD
5
1
100
AcDbSymbolTable
70
1
0
BLOCK_RECORD
5
1F
100
AcDbSymbolTableRecord
100
AcDbBlockTableRecord
2
*MODEL_SPACE
0
BLOCK_RECORD
5
1B
100
AcDbSymbolTableRecord
100
AcDbBlockTableRecord
2
*PAPER_SPACE
0
ENDTAB
0
ENDSEC
0
SECTION
2
BLOCKS
0
BLOCK
5
20
100
AcDbEntity
100
AcDbBlockBegin
2
*MODEL_SPACE
0
ENDBLK
5
21
100
AcDbEntity
100
AcDbBlockEnd
0
BLOCK
5
1C
100
AcDbEntity
100
AcDbBlockBegin
2
*PAPER_SPACE
0
ENDBLK
5
1D
100
AcDbEntity
100
AcDbBlockEnd
0
ENDSEC
0
SECTION
2
ENTITIES
0
LWPOLYLINE
5
100
100
AcDbEntity
8
0
100
AcDbPolyline
90
4
70
1
43
0.0
10
-0.58865971863269795
20
7.3421994745731354
10
-0.58865971863269817
20
-8.1578005254268646
10
40.411340281367309
20
-8.1578005254268646
10
40.411340281367309
20
7.3421994745731354
0
LWPOLYLINE
5
101
100
AcDbEntity
8
0
100
AcDbPolyline
90
26
70
1
43
0.0
10
0.011340281367302057
20
2.5921994745731358
10
0.011340281367302057
20
4.0921994745731354
10
0.51134028136730203
20
4.5921994745731345
10
4.5113402813673034
20
4.5921994745731345
10
5.0113402813673016
20
4.0921994745731354
10
5.0113402813673016
20
2.5921994745731354
10
4.5113402813673034
20
2.0921994745731349
10
5.0113402813673016
20
1.5921994745731349
10
5.0113402813673016
20
0.092199474573135196
10
4.5113402813673016
20
-0.40780052542686468
10
5.0113402813673016
20
-0.90780052542686485
10
5.0113402813673016
20
-2.4078005254268646
10
4.5113402813673016
20
-2.9078005254268646
10
5.0113402813673016
20
-3.4078005254268651
10
5.0113402813673016
20
-4.9078005254268646
10
4.5113402813673016
20
-5.4078005254268646
10
0.51134028136730181
20
-5.4078005254268646
10
0.011340281367302057
20
-4.9078005254268646
10
0.011340281367302057
20
-3.4078005254268651
10
0.51134028136730203
20
-2.9078005254268646
10
0.011340281367302057
20
-2.4078005254268642
10
0.011340281367302057
20
-0.90780052542686451
10
0.51134028136730181
20
-0.40780052542686462
10
0.011340281367302057
20
0.092199474573135404
10
0.011340281367302057
20
1.5921994745731349
10
0.51134028136730203
20
2.0921994745731349
0
LWPOLYLINE
5
102
100
AcDbEntity
8
0
100
AcDbPolyline
90
4
70
1
43
0.0
10
37.51134028136731
20
3.0921994745731292
10
39.411340281367302
20
3.0921994745731283
10
39.411340281367302
20
1.1921994745731301
10
37.51134028136731
20
1.1921994745731301
0
LWPOLYLINE
5
103
100
AcDbEntity
8
0
100
AcDbPolyline
90
4
70
1
43
0.0
10
37.51134028136731
20
-2.0078005254268705
10
39.411340281367302
20
-2.0078005254268705
10
39.411340281367302
20
-3.9078005254268691
10
37.51134028136731
20
-3.9078005254268682
0
LWPOLYLINE
5
104
100
AcDbEntity
8
0
100
AcDbPolyline
90
4
70
1
43
0.0
10
34.961340281367306
20
0.54219947457313555
10
36.861340281367305
20
0.54219947457313555
10
36.861340281367305
20
-1.3578005254268626
10
34.961340281367306
20
-1.3578005254268626
0
LWPOLYLINE
5
105
100
AcDbEntity
8
0
100
AcDbPolyline
90
4
70
1
43
0.0
10
32.411340281367302
20
1.1921994745731221
10
32.411340281367302
20
3.0921994745731207
10
34.311340281367308
20
3.0921994745731207
10
34.311340281367308
20
1.1921994745731221
0
LWPOLYLINE
5
106
100
AcDbEntity
8
0
100
AcDbPolyline
90
4
70
1
43
0.0
10
32.411340281367302
20
-2.0078005254268714
10
34.311340281367308
20
-2.0078005254268714
10
34.311340281367308
20
-3.9078005254268695
10
32.411340281367302
20
-3.9078005254268695
0
LWPOLYLINE
5
107
100
AcDbEntity
8
0
100
AcDbPolyline
90
26
70
1
43
0.0
10
0.51134028136730203
20
4.5921994745731345
10
0.011340281367302057
20
4.0921994745731354
10
0.011340281367302047
20
2.5921994745731358
10
0.51134028136730203
20
2.0921994745731349
10
0.011340281367302057
20
1.5921994745731349
10
0.011340281367302047
20
0.092199474573135265
10
0.51134028136730181
20
-0.40780052542686462
10
0.011340281367302057
20
-0.90780052542686462
10
0.011340281367302047
20
-2.4078005254268642
10
0.51134028136730203
20
-2.9078005254268646
10
0.011340281367302057
20
-3.4078005254268651
10
0.011340281367302047
20
-4.9078005254268646
10
0.51134028136730203
20
-5.4078005254268646
10
4.5113402813673016
20
-5.4078005254268646
10
5.0113402813673016
20
-4.9078005254268646
10
5.0113402813673016
20
-3.4078005254268651
10
4.5113402813673016
20
-2.9078005254268646
10
5.0113402813673016
20
-2.4078005254268646
10
5.0113402813673016
20
-0.90780052542686485
10
4.5113402813673016
20
-0.40780052542686462
10
5.0113402813673016
20
0.092199474573135334
10
5.0113402813673016
20
1.5921994745731349
10
4.5113402813673034
20
2.0921994745731349
10
5.0113402813673016
20
2.5921994745731354
10
5.0113402813673016
20
4.0921994745731354
10
4.5113402813673034
20
4.5921994745731345
0
LWPOLYLINE
5
108
100
AcDbEntity
8
0
100
AcDbPolyline
90
4
70
1
43
0.0
10
1.5663402813673026
20
3.0171994745731356
10
0.9163402813673025
20
3.0171994745731356
10
0.9163402813673025
20
3.6671994745731356
10
1.5663402813673026
20
3.6671994745731356
0
LWPOLYLINE
5
109
100
AcDbEntity
8
0
100
AcDbPolyline
90
4
70
1
43
0.0
10
4.1063402813673031
20
3.0171994745731356
10
3.4563402813673028
20
3.0171994745731356
10
3.4563402813673028
20
3.6671994745731356
10
4.1063402813673031
20
3.6671994745731356
0
LWPOLYLINE
5
110
100
AcDbEntity
8
0
100
AcDbPolyline
90
4
70
1
43
0.0
10
1.5663402813673035
20
0.51719947457313509
10
0.91634028136730294
20
0.51719947457313509
10
0.91634028136730294
20
1.1671994745731353
10
1.5663402813673035
20
1.1671994745731353
0
LWPOLYLINE
5
111
100
AcDbEntity
8
0
100
AcDbPolyline
90
4
70
1
43
0.0
10
4.1063402813673022
20
0.51719947457313509
10
3.4563402813673023
20
0.51719947457313509
10
3.4563402813673023
20
1.1671994745731353
10
4.1063402813673022
20
1.1671994745731353
0
LWPOLYLINE
5
112
100
AcDbEntity
8
0
100
AcDbPolyline
90
4
70
1
43
0.0
10
1.5663402813673035
20
-1.9828005254268644
10
0.91634028136730294
20
-1.9828005254268644
10
0.91634028136730294
20
-1.3328005254268638
10
1.5663402813673035
20
-1.3328005254268638
0
LWPOLYLINE
5
113
100
AcDbEntity
8
0
100
AcDbPolyline
90
4
70
1
43
0.0
10
4.106340281367304
20
-1.9828005254268644
10
3.4563402813673036
20
-1.9828005254268644
10
3.4563402813673036
20
-1.332800525426864
10
4.106340281367304
20
-1.332800525426864
0
LWPOLYLINE
5
114
100
AcDbEntity
8
0
100
AcDbPolyline
90
4
70
1
43
0.0
10
1.5663402813673035
20
-4.4828005254268639
10
0.91634028136730361
20
-4.4828005254268639
10
0.91634028136730361
20
-3.8328005254268644
10
1.5663402813673035
20
-3.8328005254268644
0
LWPOLYLINE
5
115
100
AcDbEntity
8
0
100
AcDbPolyline
90
4
70
1
43
0.0
10
4.1063402813673031
20
-4.4828005254268648
10
3.4563402813673028
20
-4.4828005254268648
10
3.4563402813673028
20
-3.8328005254268653
10
4.1063402813673031
20
-3.8328005254268653
0
LWPOLYLINE
5
116
100
AcDbEntity
8
0
100
AcDbPolyline
90
4
70
1
43
0.0
10
35.54950377172154
20
-0.76963703507263093
10
36.273176791013071
20
-0.76963703507263093
10
36.273176791013071
20
-0.045964015781096157
10
35.54950377172154
20
-0.04596401578109615
0
LWPOLYLINE
5
117
100
AcDbEntity
8
0
100
AcDbPolyline
90
4
70
1
43
0.0
10
38.099503771721537
20
1.780362964927362
10
38.823176791013069
20
1.780362964927362
10
38.823176791013069
20
2.5040359842188966
10
38.099503771721537
20
2.5040359842188971
0
LWPOLYLINE
5
118
100
AcDbEntity
8
0
100
AcDbPolyline
90
4
70
1
43
0.0
10
32.999503771721535
20
1.7803629649273536
10
33.723176791013067
20
1.7803629649273536
10
33.723176791013067
20
2.5040359842188886
10
32.999503771721535
20
2.5040359842188886
0
LWPOLYLINE
5
119
100
AcDbEntity
8
0
100
AcDbPolyline
90
4
70
1
43
0.0
10
33.723176791013067
20
-3.3196370350726374
10
33.723176791013067
20
-2.5959640157811026
10
32.999503771721535
20
-2.5959640157811026
10
32.999503771721535
20
-3.3196370350726374
0
LWPOLYLINE
5
120
100
AcDbEntity
8
0
100
AcDbPolyline
90
4
70
1
43
0.0
10
38.099503771721537
20
-3.3196370350726365
10
38.823176791013069
20
-3.3196370350726365
10
38.823176791013069
20
-2.5959640157811013
10
38.099503771721537
20
-2.5959640157811021
0
ENDSEC
0
SECTION
2
OBJECTS
0
DICTIONARY
5
C
100
AcDbDictionary
3
ACAD_GROUP
350
D
3
ACAD_MLINESTYLE
350
17
0
DICTIONARY
5
D
100
AcDbDictionary
0
DICTIONARY
5
1A
330
C
100
AcDbDictionary
0
DICTIONARY
5
17
100
AcDbDictionary
0
ENDSEC
0
EOF
